<svg xmlns="http://www.w3.org/2000/svg" width="32" height="32" viewBox="0 0 640 640" fill="none">
  <rect width="640" height="640" rx="100" fill="#292524"/>
  <g transform="translate(83, 56)">
    <g transform="translate(-21,533.7) scale(0.1,-0.1)" fill="#d97706">
      <path d="M2560 5316 c-216 -77 -390 -207 -457 -344 -27 -55 -28 -63 -28 -207 0 -144 1 -153 28 -212 16 -33 42 -74 58 -89 16 -15 29 -33 29 -41 0 -26 -95 -168 -149 -222 -31 -31 -84 -72 -119 -91 -227 -127 -261 -157 -285 -260 -11 -51 -21 -63 -187 -229 -136 -137 -186 -194 -223 -257 -82 -138 -131 -283 -144 -423 -5 -53 -14 -77 -44 -123 -24 -38 -56 -116 -92 -226 -30 -92 -73 -209 -96 -260 -58 -127 -59 -141 -21 -242 32 -81 33 -86 26 -191 -9 -147 -30 -259 -72 -391 -57 -175 -65 -190 -178 -308 -119 -125 -126 -139 -126 -272 0 -83 -2 -91 -43 -170 -23 -46 -84 -146 -135 -224 -75 -115 -92 -148 -92 -179 0 -54 19 -109 50 -147 27 -32 30 -33 118 -36 l90 -4 6 -43 c9 -57 25 -69 82 -61 70 9 255 74 314 109 78 47 91 69 102 178 7 70 14 99 29 115 17 18 20 44 29 225 9 188 25 303 50 349 5 10 41 41 79 69 38 28 74 63 80 79 6 15 18 85 26 156 19 161 31 215 53 240 9 10 69 43 132 73 63 29 130 61 147 70 21 11 36 14 41 8 4 -6 34 -45 66 -88 103 -136 242 -252 387 -322 46 -22 91 -54 126 -89 75 -75 148 -122 278 -178 61 -26 114 -54 120 -62 22 -35 -56 -137 -159 -211 -82 -57 -115 -74 -221 -110 -106 -35 -115 -51 -64 -109 l31 -36 -28 -38 c-15 -20 -75 -85 -133 -145 -98 -100 -104 -109 -95 -135 6 -19 26 -35 68 -56 56 -29 60 -29 115 -17 85 19 85 19 91 -14 5 -28 8 -30 50 -29 45 1 281 38 353 56 57 14 64 38 44 151 -10 51 -17 109 -17 129 0 35 2 37 43 43 53 9 85 26 117 60 24 25 25 34 30 166 4 109 8 142 20 150 8 5 47 28 85 51 105 61 135 86 135 111 0 12 -23 54 -51 92 -50 69 -82 125 -112 196 l-15 37 80 26 c80 26 240 102 289 137 15 10 29 19 32 19 3 0 7 -75 9 -168 3 -138 6 -173 21 -201 33 -60 95 -117 160 -147 58 -27 70 -29 187 -29 113 0 131 3 191 28 36 15 69 27 73 27 22 0 106 -129 106 -163 0 -42 -36 -104 -96 -167 -30 -31 -54 -63 -54 -72 0 -16 33 -49 67 -67 21 -11 21 -13 8 -51 -8 -21 -41 -88 -74 -147 -81 -145 -81 -158 10 -203 76 -39 123 -39 162 -2 16 15 31 23 33 17 23 -58 27 -60 101 -59 138 3 276 65 275 125 0 13 -18 89 -41 167 -22 79 -41 151 -41 159 0 9 17 31 39 49 44 38 66 83 57 117 -3 13 -34 63 -69 113 -81 112 -97 144 -104 203 -6 56 20 161 66 264 50 111 46 123 -77 201 -133 84 -126 67 -119 258 8 219 39 323 128 432 49 58 76 67 236 77 199 13 267 30 332 85 90 76 80 197 -25 294 -59 54 -132 87 -245 110 -64 13 -99 26 -116 42 -21 20 -35 23 -91 22 -115 -2 -222 -16 -222 -28 0 -14 77 -89 107 -105 28 -14 105 -14 153 0 52 16 191 -1 253 -31 67 -32 107 -72 107 -107 0 -118 -181 -181 -443 -154 -180 18 -170 14 -203 84 -16 35 -53 86 -86 119 -89 92 -173 123 -428 159 -241 33 -313 63 -411 166 -69 73 -95 111 -204 301 -48 84 -111 187 -141 228 -30 42 -52 80 -49 84 11 17 170 117 213 134 82 31 151 32 236 1 90 -33 129 -29 182 17 39 34 52 59 65 125 5 27 27 67 60 110 46 60 51 71 46 106 -7 54 -30 74 -109 98 -56 16 -73 26 -88 52 -11 18 -20 35 -20 39 0 3 38 32 85 63 178 118 272 293 263 490 -3 84 -8 100 -43 171 -58 114 -65 110 -65 -38 0 -186 -33 -283 -127 -375 -64 -63 -181 -122 -303 -154 -153 -39 -225 -20 -464 125 -113 68 -150 85 -229 101 -46 9 -114 80 -138 143 -17 45 -20 72 -17 132 7 126 63 215 214 341 91 76 103 102 49 106 -17 1 -59 -8 -95 -21z"/>
    </g>
  </g>
</svg>
